# xmcd
#
# Track frame offsets: 
#        150
#        19710
#        39776
#        55447
#        74619
#        96189
#        111296
#        128813
#        148020
#        164655
#        183451
#        198699
#        219129
#        237901
#
# Disc length: 3452 seconds
#
# Revision: 0
# Processed by: cddbd v1.5.2PL0 Copyright (c) Steve Scherf et al.
# Submitted via: ExactAudioCopy v1.3
#
DISCID=cf0d7a0e
DTITLE=Iron Horse - Pickin' on Modest Mouse
DYEAR=2006
DGENRE=Bluegrass
TTITLE0=Ocean Breathes Salty
TTITLE1=3rd Planet
TTITLE2=Polar Opposites
TTITLE3=Float On
TTITLE4=Gravity Rides Everything
TTITLE5=A Different City
TTITLE6=Dark Center Of The Universe
TTITLE7=Interstate 8
TTITLE8=World At Large
TTITLE9=Trailer Trash
TTITLE10=Satin In A Coffin
TTITLE11=Dramamine
TTITLE12=Baby Blue Sedan
TTITLE13=Night On The Sun
EXTD=
EXTT0=
EXTT1=
EXTT2=
EXTT3=
EXTT4=
EXTT5=
EXTT6=
EXTT7=
EXTT8=
EXTT9=
EXTT10=
EXTT11=
EXTT12=
EXTT13=
PLAYORDER=
